<svg xmlns="http://www.w3.org/2000/svg" viewBox="0 0 640 520" fill="none">
  <defs>
    <linearGradient id="g7" x1="110" y1="40" x2="530" y2="420" gradientUnits="userSpaceOnUse">
      <stop stop-color="#e9f6e8" />
      <stop offset="1" stop-color="#d1edd4" />
    </linearGradient>
    <linearGradient id="l7" x1="160" y1="120" x2="480" y2="210" gradientUnits="userSpaceOnUse">
      <stop stop-color="#ffffff" stop-opacity="0.98" />
      <stop offset="1" stop-color="#eefaf2" stop-opacity="0.94" />
    </linearGradient>
  </defs>
  <rect width="640" height="520" rx="36" fill="#f4fbf5" />
  <path d="M170 150c0-54 42-98 96-98h156c54 0 96 44 96 98v206c0 54-42 98-96 98H266c-54 0-96-44-96-98V150Z" fill="url(#g7)" opacity="0.28" />
  <path d="M250 180c0-24 20-44 44-44h132c24 0 44 20 44 44v158c0 24-20 44-44 44H294c-24 0-44-20-44-44V180Z" fill="#ffffff" stroke="#5cbf72" stroke-width="18" />
  <path d="M294 240h120" stroke="#5cbf72" stroke-width="24" stroke-linecap="round" />
  <path d="M294 300h90" stroke="#5cbf72" stroke-width="24" stroke-linecap="round" />
  <rect x="192" y="110" width="256" height="58" rx="28" fill="url(#l7)" />
  <text x="320" y="144" text-anchor="middle" font-family="Inter, sans-serif" font-size="24" font-weight="700" fill="#1f5b33">FITFUEL</text>
  <text x="320" y="172" text-anchor="middle" font-family="Inter, sans-serif" font-size="18" font-weight="600" fill="#3d8f55">VitaPack Daily</text>
  <text x="320" y="196" text-anchor="middle" font-family="Inter, sans-serif" font-size="14" font-weight="500" fill="#5b9e70">Daily vitamins for energy, immunity, and recovery.</text>
</svg>
