<svg xmlns="http://www.w3.org/2000/svg" viewBox="40 0 560 450" fill="none">
  <defs>
    <linearGradient id="g2" x1="110" y1="40" x2="530" y2="430" gradientUnits="userSpaceOnUse">
      <stop stop-color="#4fd1ff" />
      <stop offset="1" stop-color="#b7f2ff" />
    </linearGradient>
    <linearGradient id="label2" x1="176" y1="120" x2="464" y2="220" gradientUnits="userSpaceOnUse">
      <stop stop-color="#ffffff" stop-opacity="0.95" />
      <stop offset="1" stop-color="#e7f8ff" stop-opacity="0.94" />
    </linearGradient>
  </defs>
  <rect width="640" height="520" rx="40" fill="#f3fbff" />
  <path d="M220 146c0-36 28-66 62-66h156c34 0 62 30 62 66v260c0 36-28 66-62 66H282c-34 0-62-30-62-66V146Z" fill="url(#g2)" opacity="0.28" />
  <path d="M250 176c24-28 72-38 110-22 16 7 28 20 34 34l22 96c5 22-8 45-30 54-52 22-114 16-154-16-22-18-32-44-32-72V176Z" fill="#fff" stroke="#4fd1ff" stroke-width="18" />
  <path d="M254 250h150" stroke="#4fd1ff" stroke-width="22" stroke-linecap="round" />
  <path d="M254 318h120" stroke="#4fd1ff" stroke-width="22" stroke-linecap="round" />
  <path d="M260 390h100" stroke="#4fd1ff" stroke-width="20" stroke-linecap="round" opacity="0.7" />
  <rect x="192" y="110" width="256" height="58" rx="28" fill="url(#label2)" />
  <text x="320" y="144" text-anchor="middle" font-family="Inter, sans-serif" font-size="24" font-weight="700" fill="#0f6eff">FitFuel</text>
  <text x="320" y="172" text-anchor="middle" font-family="Inter, sans-serif" font-size="18" font-weight="600" fill="#1f4f72">Focus Charge</text>
</svg>
