<svg xmlns="http://www.w3.org/2000/svg" viewBox="0 0 640 520" fill="none">
  <defs>
    <linearGradient id="g5" x1="110" y1="40" x2="530" y2="420" gradientUnits="userSpaceOnUse">
      <stop stop-color="#ffe8de" />
      <stop offset="1" stop-color="#ffd6a7" />
    </linearGradient>
    <linearGradient id="l5" x1="160" y1="120" x2="480" y2="220" gradientUnits="userSpaceOnUse">
      <stop stop-color="#ffffff" stop-opacity="0.98" />
      <stop offset="1" stop-color="#ffe9d8" stop-opacity="0.94" />
    </linearGradient>
  </defs>
  <rect width="640" height="520" rx="36" fill="#fff6f0" />
  <path d="M150 160c0-48 40-88 88-88h180c48 0 88 40 88 88v200c0 48-40 88-88 88H238c-48 0-88-40-88-88V160Z" fill="url(#g5)" opacity="0.3" />
  <path d="M230 185c0-22 18-40 40-40h160c22 0 40 18 40 40v160c0 22-18 40-40 40H270c-22 0-40-18-40-40V185Z" fill="#ffffff" stroke="#ff8e6b" stroke-width="18" />
  <path d="M270 225h140" stroke="#ff8e6b" stroke-width="24" stroke-linecap="round" />
  <path d="M270 295h110" stroke="#ff8e6b" stroke-width="24" stroke-linecap="round" />
  <rect x="190" y="105" width="260" height="60" rx="30" fill="url(#l5)" />
  <text x="320" y="142" text-anchor="middle" font-family="Inter, sans-serif" font-size="24" font-weight="700" fill="#2a1b12">FITFUEL</text>
  <text x="320" y="170" text-anchor="middle" font-family="Inter, sans-serif" font-size="16" font-weight="600" fill="#7e492b">Recovery Matrix</text>
  <text x="320" y="204" text-anchor="middle" font-family="Inter, sans-serif" font-size="14" font-weight="500" fill="#b76a44">Post-Workout Blend</text>
</svg>
