<svg xmlns="http://www.w3.org/2000/svg" viewBox="0 0 640 520" fill="none">
  <defs>
    <linearGradient id="g6" x1="110" y1="40" x2="530" y2="420" gradientUnits="userSpaceOnUse">
      <stop stop-color="#e7f5ff" />
      <stop offset="1" stop-color="#c5e6ff" />
    </linearGradient>
    <linearGradient id="l6" x1="160" y1="120" x2="480" y2="210" gradientUnits="userSpaceOnUse">
      <stop stop-color="#ffffff" stop-opacity="0.98" />
      <stop offset="1" stop-color="#ecf7ff" stop-opacity="0.94" />
    </linearGradient>
  </defs>
  <rect width="640" height="520" rx="36" fill="#f4fbff" />
  <path d="M170 150c0-54 42-98 96-98h156c54 0 96 44 96 98v206c0 54-42 98-96 98H266c-54 0-96-44-96-98V150Z" fill="url(#g6)" opacity="0.28" />
  <path d="M250 180c0-24 20-44 44-44h132c24 0 44 20 44 44v158c0 24-20 44-44 44H294c-24 0-44-20-44-44V180Z" fill="#ffffff" stroke="#44a2ff" stroke-width="18" />
  <path d="M294 230h120" stroke="#44a2ff" stroke-width="24" stroke-linecap="round" />
  <path d="M294 298h90" stroke="#44a2ff" stroke-width="24" stroke-linecap="round" />
  <path d="M294 362h70" stroke="#44a2ff" stroke-width="20" stroke-linecap="round" opacity="0.8" />
  <rect x="192" y="110" width="256" height="58" rx="28" fill="url(#l6)" />
  <text x="320" y="144" text-anchor="middle" font-family="Inter, sans-serif" font-size="24" font-weight="700" fill="#1f4f72">FITFUEL</text>
  <text x="320" y="172" text-anchor="middle" font-family="Inter, sans-serif" font-size="18" font-weight="600" fill="#3068a4">Creatine Surge</text>
  <text x="320" y="196" text-anchor="middle" font-family="Inter, sans-serif" font-size="14" font-weight="500" fill="#4b7eb2">Fruit Punch | Berry Blast | Citrus Charge</text>
</svg>
